<svg width="342" height="139" viewBox="0 0 342 139" fill="none" xmlns="http://www.w3.org/2000/svg">
<path d="M153.059 31.7969C152.966 30.8281 152.137 30.2656 150.919 30.2656C149.637 30.2656 148.856 30.8906 148.856 31.7344C148.856 32.6875 149.856 33.0781 150.794 33.2969L151.856 33.5781C153.544 33.9688 155.169 34.8594 155.169 36.8281C155.169 38.8125 153.606 40.1719 150.887 40.1719C148.247 40.1719 146.591 38.9062 146.497 36.6719H148.497C148.591 37.8594 149.591 38.4375 150.872 38.4375C152.216 38.4375 153.137 37.7812 153.137 36.8125C153.137 35.9219 152.309 35.5469 151.091 35.2344L149.809 34.9062C147.95 34.4219 146.794 33.4844 146.794 31.8594C146.794 29.8594 148.575 28.5312 150.95 28.5312C153.356 28.5312 154.981 29.8906 155.012 31.7969H153.059ZM155.876 30.3906V28.6875H164.892V30.3906H161.408V40H159.376V30.3906H155.876ZM166.006 40V28.6875H173.365V30.3906H168.037V33.4844H172.974V35.1875H168.037V38.2812H173.396V40H166.006ZM174.838 40V28.6875H179.088C181.682 28.6875 183.072 30.2656 183.072 32.4375C183.072 34.6094 181.666 36.1719 179.057 36.1719H176.869V40H174.838ZM176.869 34.5H178.776C180.307 34.5 180.994 33.6406 180.994 32.4375C180.994 31.2188 180.307 30.3906 178.776 30.3906H176.869V34.5ZM187.441 40V38.5312L191.441 34.6719C192.581 33.5312 193.175 32.8594 193.175 31.9062C193.175 30.8594 192.347 30.1875 191.237 30.1875C190.066 30.1875 189.316 30.9219 189.331 32.0625H187.394C187.378 29.9219 188.987 28.5312 191.253 28.5312C193.566 28.5312 195.128 29.9062 195.128 31.8125C195.128 33.0938 194.503 34.125 192.284 36.2188L190.269 38.2188V38.2969H195.3V40H187.441Z" fill="white"/>
<path d="M133.864 51.1016V63.8555H131.677V51.1016H133.864ZM134.353 66.6289V68.3867H122.185V62.5664H124.372V66.6289H134.353ZM124.236 52.2539C126.911 52.2539 128.982 54.1094 128.982 56.668C128.982 59.2852 126.911 61.1016 124.236 61.1016C121.54 61.1016 119.47 59.2852 119.47 56.668C119.47 54.1094 121.54 52.2539 124.236 52.2539ZM124.236 54.1484C122.732 54.1484 121.579 55.1445 121.599 56.668C121.579 58.2305 122.732 59.207 124.236 59.207C125.7 59.207 126.853 58.2305 126.853 56.668C126.853 55.1445 125.7 54.1484 124.236 54.1484ZM142.327 54.1094C142.327 56.2578 143.753 58.4258 146.487 59.3438L145.393 61.0234C143.421 60.3789 142.024 59.041 141.253 57.3906C140.481 59.2363 139.007 60.7207 136.917 61.4141L135.804 59.6953C138.616 58.7773 140.12 56.4336 140.12 54.1289V53.8945H136.448V52.1562H145.979V53.8945H142.327V54.1094ZM150.628 62.4492V68.7383H148.46V64.1875H138.596V62.4492H150.628ZM150.628 51.082V61.6094H148.46V57.2344H145.452V55.457H148.46V51.082H150.628ZM158.836 55.3203C158.817 58.4648 160.399 61.668 163.133 62.9766L161.805 64.7148C159.891 63.748 158.514 61.8828 157.762 59.6367C156.991 62.0391 155.545 64.0312 153.524 65.0469L152.196 63.3086C155.028 61.9609 156.649 58.582 156.668 55.3203V52.5078H158.836V55.3203ZM166.356 51.082V57.9961H169.071V59.8516H166.356V68.7383H164.188V51.082H166.356ZM183.139 51.082V55.7305H185.6V57.5469H183.139V62.3516H180.971V51.082H183.139ZM177.436 62.5078C181.049 62.5078 183.334 63.6602 183.334 65.6133C183.334 67.5469 181.049 68.7188 177.436 68.7188C173.764 68.7188 171.518 67.5469 171.537 65.6133C171.518 63.6602 173.764 62.5078 177.436 62.5078ZM177.436 64.168C175.014 64.168 173.666 64.6367 173.686 65.6133C173.666 66.5508 175.014 67.0781 177.436 67.0781C179.818 67.0781 181.166 66.5508 181.166 65.6133C181.166 64.6367 179.818 64.168 177.436 64.168ZM179.701 52.8789V54.5781H169.232V52.8789H173.393V50.9648H175.561V52.8789H179.701ZM174.467 55.2812C177.025 55.2812 178.764 56.5508 178.783 58.4453C178.764 60.3398 177.025 61.5898 174.467 61.5898C171.889 61.5898 170.131 60.3398 170.131 58.4453C170.131 56.5508 171.889 55.2812 174.467 55.2812ZM174.467 56.8828C173.119 56.8828 172.24 57.4688 172.24 58.4453C172.24 59.4023 173.119 59.9492 174.467 59.9492C175.814 59.9492 176.713 59.4023 176.713 58.4453C176.713 57.4688 175.814 56.8828 174.467 56.8828ZM204.751 51.082V60.5547H202.564V51.082H204.751ZM195.22 61.375V63.1914H202.583V61.375H204.751V68.5234H193.071V61.375H195.22ZM195.22 66.7656H202.583V64.8906H195.22V66.7656ZM195.122 51.8633C197.837 51.8438 199.868 53.543 199.868 56.0039C199.868 58.4062 197.837 60.1055 195.122 60.1055C192.388 60.1055 190.357 58.4062 190.357 56.0039C190.357 53.543 192.388 51.8438 195.122 51.8633ZM195.122 53.6797C193.579 53.6797 192.466 54.5781 192.486 56.0039C192.466 57.4102 193.579 58.3086 195.122 58.3281C196.646 58.3086 197.739 57.4102 197.739 56.0039C197.739 54.5781 196.646 53.6797 195.122 53.6797ZM215.167 52.1367V57.4492H209.6V59.6172C212.432 59.627 214.063 59.5391 215.929 59.1875L216.143 60.9453C214.034 61.2969 212.198 61.3555 208.741 61.3555H207.452V55.8281H212.999V53.8555H207.413V52.1367H215.167ZM221.514 51.1016V61.9609H219.346V59.0508H216.221V57.3125H219.346V55.3398H216.221V53.6016H219.346V51.1016H221.514ZM221.514 62.8008V68.7383H219.346V64.5391H209.444V62.8008H221.514Z" fill="white"/>
<rect x="47" y="105" width="80" height="4" fill="#FF7710"/>
<rect x="127" y="105" width="80" height="4" fill="#D9D9D9"/>
<rect x="207" y="105" width="80" height="4" fill="#D9D9D9"/>
<circle cx="51" cy="107" r="8" fill="#FF7710"/>
<circle cx="131" cy="107" r="8" fill="#FF7710"/>
<circle cx="211" cy="107" r="8" fill="#D9D9D9"/>
<circle cx="291" cy="107" r="8" fill="#D9D9D9"/>
</svg>
